<svg width="16" height="15" viewBox="0 0 16 15" fill="none" xmlns="http://www.w3.org/2000/svg">
<path d="M11.6625 8.25C12.225 8.25 12.72 7.9425 12.975 7.4775L15.66 2.61C15.9375 2.115 15.5775 1.5 15.0075 1.5H3.9075L3.2025 0H0.75V1.5H2.25L4.95 7.1925L3.9375 9.0225C3.39 10.0275 4.11 11.25 5.25 11.25H14.25V9.75H5.25L6.075 8.25H11.6625ZM4.62 3H13.7325L11.6625 6.75H6.3975L4.62 3ZM5.25 12C4.425 12 3.7575 12.675 3.7575 13.5C3.7575 14.325 4.425 15 5.25 15C6.075 15 6.75 14.325 6.75 13.5C6.75 12.675 6.075 12 5.25 12ZM12.75 12C11.925 12 11.2575 12.675 11.2575 13.5C11.2575 14.325 11.925 15 12.75 15C13.575 15 14.25 14.325 14.25 13.5C14.25 12.675 13.575 12 12.75 12Z" fill="white"/>
</svg>
