<svg width="42" height="37" viewBox="0 0 42 37" fill="none" xmlns="http://www.w3.org/2000/svg">
<g clip-path="url(#clip0_98_7573)">
<path d="M45.0692 6.615C44.7756 5.52971 44.2027 4.54029 43.4077 3.74526C42.6127 2.95022 41.6233 2.37732 40.538 2.0836C36.5648 1 20.574 1 20.574 1C20.574 1 4.58244 1.0328 0.609239 2.1164C-0.476061 2.41014 -1.46547 2.98307 -2.26047 3.77814C-3.05547 4.57321 -3.62832 5.56267 -3.92196 6.648C-5.12376 13.7076 -5.58996 24.4648 -3.88896 31.242C-3.59529 32.3273 -3.02243 33.3167 -2.22743 34.1117C-1.43243 34.9068 -0.443037 35.4797 0.642239 35.7734C4.61544 36.857 20.6066 36.857 20.6066 36.857C20.6066 36.857 36.5976 36.857 40.5706 35.7734C41.656 35.4797 42.6454 34.9068 43.4404 34.1118C44.2355 33.3168 44.8083 32.3273 45.102 31.242C46.3696 24.1724 46.7602 13.4218 45.0692 6.615Z" fill="#FF0000"/>
<path d="M15.4844 26.6121L28.75 18.9285L15.4844 11.2449V26.6121Z" fill="white"/>
</g>
<g clip-path="url(#clip1_98_7573)">
<path d="M42 32.9999C42 33.4714 41.8127 33.9236 41.4793 34.257C41.1459 34.5904 40.6937 34.7777 40.2222 34.7777H27.7778C27.3063 34.7777 26.8541 34.5904 26.5207 34.257C26.1873 33.9236 26 33.4714 26 32.9999V31.2222H42V32.9999Z" fill="#CE2028"/>
<path d="M26 26.7778H42V31.2223H26V26.7778Z" fill="#22408C"/>
<path d="M40.2222 23.2222H27.7778C27.3063 23.2222 26.8541 23.4095 26.5207 23.7429C26.1873 24.0763 26 24.5284 26 24.9999V26.7777H42V24.9999C42 24.5284 41.8127 24.0763 41.4793 23.7429C41.1459 23.4095 40.6937 23.2222 40.2222 23.2222Z" fill="#EEEEEE"/>
</g>
<defs>
<clipPath id="clip0_98_7573">
<rect x="3" y="1" width="36" height="36" rx="18" fill="white"/>
</clipPath>
<clipPath id="clip1_98_7573">
<rect width="16" height="16" fill="white" transform="translate(26 21)"/>
</clipPath>
</defs>
</svg>
